<mxfile host="app.diagrams.net" agent="Mozilla/5.0 (Windows NT 10.0; Win64; x64) AppleWebKit/537.36 (KHTML, like Gecko) Chrome/131.0.0.0 Safari/537.36" version="24.8.6">
  <diagram name="第 1 页" id="i6-SmvsiLPcXc1skeF4-">
    <mxGraphModel dx="809" dy="335" grid="1" gridSize="10" guides="1" tooltips="1" connect="1" arrows="1" fold="1" page="1" pageScale="1" pageWidth="3300" pageHeight="4681" math="0" shadow="0">
      <root>
        <mxCell id="0" />
        <mxCell id="1" parent="0" />
        <mxCell id="I3P2b_C83MJ3J00Gu9B8-1" value="Input_左" style="text;html=1;align=center;verticalAlign=middle;whiteSpace=wrap;rounded=0;" vertex="1" parent="1">
          <mxGeometry x="80" y="100" width="60" height="30" as="geometry" />
        </mxCell>
        <mxCell id="I3P2b_C83MJ3J00Gu9B8-2" value="Input_右" style="text;html=1;align=center;verticalAlign=middle;whiteSpace=wrap;rounded=0;" vertex="1" parent="1">
          <mxGeometry x="80" y="150" width="60" height="30" as="geometry" />
        </mxCell>
        <mxCell id="I3P2b_C83MJ3J00Gu9B8-6" value="" style="group;movable=1;resizable=1;rotatable=1;deletable=1;editable=1;locked=0;connectable=1;" vertex="1" connectable="0" parent="1">
          <mxGeometry x="170" y="79.99999999999997" width="99.5" height="120" as="geometry" />
        </mxCell>
        <mxCell id="I3P2b_C83MJ3J00Gu9B8-8" value="" style="rounded=1;whiteSpace=wrap;html=1;fillColor=none;strokeWidth=0.5;strokeColor=#ec1818;container=0;movable=1;resizable=1;rotatable=1;deletable=1;editable=1;locked=0;connectable=1;" vertex="1" parent="I3P2b_C83MJ3J00Gu9B8-6">
          <mxGeometry x="2.25" width="94.75" height="120" as="geometry" />
        </mxCell>
        <mxCell id="I3P2b_C83MJ3J00Gu9B8-9" value="Conv2d" style="rounded=0;whiteSpace=wrap;html=1;fillColor=default;strokeColor=#d79b00;gradientColor=#00FF80;container=0;rotation=-90;movable=1;resizable=1;rotatable=1;deletable=1;editable=1;locked=0;connectable=1;" vertex="1" parent="I3P2b_C83MJ3J00Gu9B8-6">
          <mxGeometry x="-21.75" y="61.5" width="85" height="20" as="geometry" />
        </mxCell>
        <mxCell id="I3P2b_C83MJ3J00Gu9B8-10" value="BatchNorm2d" style="rounded=0;whiteSpace=wrap;html=1;fillColor=#dae8fc;strokeColor=#6c8ebf;gradientColor=#66B2FF;container=0;rotation=-90;movable=1;resizable=1;rotatable=1;deletable=1;editable=1;locked=0;connectable=1;" vertex="1" parent="I3P2b_C83MJ3J00Gu9B8-6">
          <mxGeometry x="-3.75" y="61.5" width="85" height="20" as="geometry" />
        </mxCell>
        <mxCell id="I3P2b_C83MJ3J00Gu9B8-11" value="Relu" style="rounded=0;whiteSpace=wrap;html=1;gradientColor=#CCCCCC;container=0;rotation=-90;movable=1;resizable=1;rotatable=1;deletable=1;editable=1;locked=0;connectable=1;" vertex="1" parent="I3P2b_C83MJ3J00Gu9B8-6">
          <mxGeometry x="16.73999999999998" y="61.5" width="85" height="20" as="geometry" />
        </mxCell>
        <mxCell id="I3P2b_C83MJ3J00Gu9B8-12" value="MaxPool2d" style="rounded=0;whiteSpace=wrap;html=1;fillColor=#FFCC99;strokeColor=#b85450;container=0;rotation=-90;movable=1;resizable=1;rotatable=1;deletable=1;editable=1;locked=0;connectable=1;" vertex="1" parent="I3P2b_C83MJ3J00Gu9B8-6">
          <mxGeometry x="36.25" y="61.5" width="85" height="20" as="geometry" />
        </mxCell>
        <mxCell id="I3P2b_C83MJ3J00Gu9B8-13" value="" style="rounded=0;whiteSpace=wrap;html=1;fillColor=#E6FFCC;strokeColor=#eb1e1e;strokeWidth=0.5;container=0;rotation=-90;movable=1;resizable=1;rotatable=1;deletable=1;editable=1;locked=0;connectable=1;" vertex="1" parent="I3P2b_C83MJ3J00Gu9B8-6">
          <mxGeometry x="37.25" y="-22.680000000000007" width="25" height="78" as="geometry" />
        </mxCell>
        <mxCell id="I3P2b_C83MJ3J00Gu9B8-14" value="&lt;span style=&quot;background-color: rgb(213, 232, 212);&quot;&gt;&lt;font style=&quot;font-size: 14px;&quot;&gt;ConvBlock1&lt;/font&gt;&lt;/span&gt;" style="text;html=1;align=center;verticalAlign=middle;whiteSpace=wrap;rounded=0;fontColor=#CC6600;horizontal=0;rotation=90;container=0;movable=1;resizable=1;rotatable=1;deletable=1;editable=1;locked=0;connectable=1;" vertex="1" parent="I3P2b_C83MJ3J00Gu9B8-6">
          <mxGeometry x="39" y="-33.43000000000001" width="21.5" height="99.5" as="geometry" />
        </mxCell>
        <mxCell id="I3P2b_C83MJ3J00Gu9B8-15" value="Basci_block" style="text;html=1;align=center;verticalAlign=middle;whiteSpace=wrap;rounded=0;fontColor=#333333;horizontal=0;rotation=0;container=0;movable=1;resizable=1;rotatable=1;deletable=1;editable=1;locked=0;connectable=1;fillColor=#f5f5f5;strokeColor=#666666;" vertex="1" parent="1">
          <mxGeometry x="290" y="90.24999999999997" width="21.5" height="99.5" as="geometry" />
        </mxCell>
        <mxCell id="I3P2b_C83MJ3J00Gu9B8-17" style="edgeStyle=orthogonalEdgeStyle;rounded=0;orthogonalLoop=1;jettySize=auto;html=1;entryX=-0.024;entryY=0.707;entryDx=0;entryDy=0;entryPerimeter=0;" edge="1" parent="1" source="I3P2b_C83MJ3J00Gu9B8-2" target="I3P2b_C83MJ3J00Gu9B8-6">
          <mxGeometry relative="1" as="geometry" />
        </mxCell>
        <mxCell id="I3P2b_C83MJ3J00Gu9B8-19" style="edgeStyle=orthogonalEdgeStyle;rounded=0;orthogonalLoop=1;jettySize=auto;html=1;entryX=0.006;entryY=0.284;entryDx=0;entryDy=0;entryPerimeter=0;" edge="1" parent="1" source="I3P2b_C83MJ3J00Gu9B8-1" target="I3P2b_C83MJ3J00Gu9B8-6">
          <mxGeometry relative="1" as="geometry" />
        </mxCell>
        <mxCell id="I3P2b_C83MJ3J00Gu9B8-20" style="edgeStyle=orthogonalEdgeStyle;rounded=0;orthogonalLoop=1;jettySize=auto;html=1;entryX=0;entryY=0.5;entryDx=0;entryDy=0;" edge="1" parent="1">
          <mxGeometry relative="1" as="geometry">
            <mxPoint x="267" y="113" as="sourcePoint" />
            <mxPoint x="290" y="113" as="targetPoint" />
          </mxGeometry>
        </mxCell>
        <mxCell id="I3P2b_C83MJ3J00Gu9B8-21" style="edgeStyle=orthogonalEdgeStyle;rounded=0;orthogonalLoop=1;jettySize=auto;html=1;entryX=0;entryY=0.5;entryDx=0;entryDy=0;" edge="1" parent="1">
          <mxGeometry relative="1" as="geometry">
            <mxPoint x="267" y="164" as="sourcePoint" />
            <mxPoint x="290" y="164" as="targetPoint" />
          </mxGeometry>
        </mxCell>
        <mxCell id="I3P2b_C83MJ3J00Gu9B8-22" value="AveragePool2d" style="text;html=1;align=center;verticalAlign=middle;whiteSpace=wrap;rounded=0;horizontal=0;rotation=0;container=0;movable=1;resizable=1;rotatable=1;deletable=1;editable=1;locked=0;connectable=1;fillColor=#d5e8d4;strokeColor=#82b366;" vertex="1" parent="1">
          <mxGeometry x="335" y="89.24999999999997" width="21.5" height="99.5" as="geometry" />
        </mxCell>
        <mxCell id="I3P2b_C83MJ3J00Gu9B8-23" style="edgeStyle=orthogonalEdgeStyle;rounded=0;orthogonalLoop=1;jettySize=auto;html=1;entryX=0;entryY=0.5;entryDx=0;entryDy=0;" edge="1" parent="1">
          <mxGeometry relative="1" as="geometry">
            <mxPoint x="312" y="112" as="sourcePoint" />
            <mxPoint x="335" y="112" as="targetPoint" />
          </mxGeometry>
        </mxCell>
        <mxCell id="I3P2b_C83MJ3J00Gu9B8-24" style="edgeStyle=orthogonalEdgeStyle;rounded=0;orthogonalLoop=1;jettySize=auto;html=1;entryX=0;entryY=0.5;entryDx=0;entryDy=0;" edge="1" parent="1">
          <mxGeometry relative="1" as="geometry">
            <mxPoint x="312" y="163" as="sourcePoint" />
            <mxPoint x="335" y="163" as="targetPoint" />
          </mxGeometry>
        </mxCell>
        <mxCell id="I3P2b_C83MJ3J00Gu9B8-25" style="edgeStyle=orthogonalEdgeStyle;rounded=0;orthogonalLoop=1;jettySize=auto;html=1;entryX=0;entryY=0.5;entryDx=0;entryDy=0;" edge="1" parent="1">
          <mxGeometry relative="1" as="geometry">
            <mxPoint x="357" y="112" as="sourcePoint" />
            <mxPoint x="380" y="112" as="targetPoint" />
          </mxGeometry>
        </mxCell>
        <mxCell id="I3P2b_C83MJ3J00Gu9B8-26" style="edgeStyle=orthogonalEdgeStyle;rounded=0;orthogonalLoop=1;jettySize=auto;html=1;entryX=0;entryY=0.5;entryDx=0;entryDy=0;" edge="1" parent="1">
          <mxGeometry relative="1" as="geometry">
            <mxPoint x="357" y="163" as="sourcePoint" />
            <mxPoint x="380" y="163" as="targetPoint" />
          </mxGeometry>
        </mxCell>
        <mxCell id="I3P2b_C83MJ3J00Gu9B8-27" value="Classifier" style="text;html=1;align=center;verticalAlign=middle;whiteSpace=wrap;rounded=0;horizontal=0;rotation=0;container=0;movable=1;resizable=1;rotatable=1;deletable=1;editable=1;locked=0;connectable=1;fillColor=#d5e8d4;strokeColor=#82b366;" vertex="1" parent="1">
          <mxGeometry x="381" y="89.24999999999997" width="21.5" height="99.5" as="geometry" />
        </mxCell>
        <mxCell id="I3P2b_C83MJ3J00Gu9B8-28" style="edgeStyle=orthogonalEdgeStyle;rounded=0;orthogonalLoop=1;jettySize=auto;html=1;entryX=0;entryY=0.5;entryDx=0;entryDy=0;" edge="1" parent="1">
          <mxGeometry relative="1" as="geometry">
            <mxPoint x="402" y="112" as="sourcePoint" />
            <mxPoint x="425" y="112" as="targetPoint" />
          </mxGeometry>
        </mxCell>
        <mxCell id="I3P2b_C83MJ3J00Gu9B8-29" style="edgeStyle=orthogonalEdgeStyle;rounded=0;orthogonalLoop=1;jettySize=auto;html=1;entryX=0;entryY=0.5;entryDx=0;entryDy=0;" edge="1" parent="1">
          <mxGeometry relative="1" as="geometry">
            <mxPoint x="402" y="163" as="sourcePoint" />
            <mxPoint x="425" y="163" as="targetPoint" />
          </mxGeometry>
        </mxCell>
        <mxCell id="I3P2b_C83MJ3J00Gu9B8-30" value="Output_左" style="text;html=1;align=center;verticalAlign=middle;whiteSpace=wrap;rounded=0;" vertex="1" parent="1">
          <mxGeometry x="423" y="90.25" width="60" height="30" as="geometry" />
        </mxCell>
        <mxCell id="I3P2b_C83MJ3J00Gu9B8-31" value="Output_右" style="text;html=1;align=center;verticalAlign=middle;whiteSpace=wrap;rounded=0;" vertex="1" parent="1">
          <mxGeometry x="423" y="150" width="60" height="30" as="geometry" />
        </mxCell>
        <mxCell id="I3P2b_C83MJ3J00Gu9B8-33" value="Input_右" style="text;html=1;align=center;verticalAlign=middle;whiteSpace=wrap;rounded=0;" vertex="1" parent="1">
          <mxGeometry x="50" y="408.43" width="60" height="30" as="geometry" />
        </mxCell>
        <mxCell id="I3P2b_C83MJ3J00Gu9B8-34" value="" style="group;movable=1;resizable=1;rotatable=1;deletable=1;editable=1;locked=0;connectable=1;" vertex="1" connectable="0" parent="1">
          <mxGeometry x="180" y="199.99999999999997" width="132.10000000000002" height="143.18" as="geometry" />
        </mxCell>
        <mxCell id="I3P2b_C83MJ3J00Gu9B8-35" value="" style="rounded=1;whiteSpace=wrap;html=1;fillColor=none;strokeWidth=0.5;strokeColor=#ec1818;container=0;movable=1;resizable=1;rotatable=1;deletable=1;editable=1;locked=0;connectable=1;" vertex="1" parent="I3P2b_C83MJ3J00Gu9B8-34">
          <mxGeometry x="-7.02" y="33.43" width="94.75" height="120" as="geometry" />
        </mxCell>
        <mxCell id="I3P2b_C83MJ3J00Gu9B8-32" value="Input_左" style="text;html=1;align=center;verticalAlign=middle;whiteSpace=wrap;rounded=0;" vertex="1" parent="I3P2b_C83MJ3J00Gu9B8-34">
          <mxGeometry x="-130" y="78.43000000000004" width="60" height="30" as="geometry" />
        </mxCell>
        <mxCell id="I3P2b_C83MJ3J00Gu9B8-36" value="Conv2d" style="rounded=0;whiteSpace=wrap;html=1;fillColor=default;strokeColor=#d79b00;gradientColor=#00FF80;container=0;rotation=-90;movable=1;resizable=1;rotatable=1;deletable=1;editable=1;locked=0;connectable=1;" vertex="1" parent="I3P2b_C83MJ3J00Gu9B8-34">
          <mxGeometry x="-31.15" y="94.93" width="85" height="20" as="geometry" />
        </mxCell>
        <mxCell id="I3P2b_C83MJ3J00Gu9B8-37" value="BatchNorm2d" style="rounded=0;whiteSpace=wrap;html=1;fillColor=#dae8fc;strokeColor=#6c8ebf;gradientColor=#66B2FF;container=0;rotation=-90;movable=1;resizable=1;rotatable=1;deletable=1;editable=1;locked=0;connectable=1;" vertex="1" parent="I3P2b_C83MJ3J00Gu9B8-34">
          <mxGeometry x="-13.15" y="94.93" width="85" height="20" as="geometry" />
        </mxCell>
        <mxCell id="I3P2b_C83MJ3J00Gu9B8-38" value="Relu" style="rounded=0;whiteSpace=wrap;html=1;gradientColor=#CCCCCC;container=0;rotation=-90;movable=1;resizable=1;rotatable=1;deletable=1;editable=1;locked=0;connectable=1;" vertex="1" parent="I3P2b_C83MJ3J00Gu9B8-34">
          <mxGeometry x="7.33999999999998" y="94.93" width="85" height="20" as="geometry" />
        </mxCell>
        <mxCell id="I3P2b_C83MJ3J00Gu9B8-39" value="MaxPool2d" style="rounded=0;whiteSpace=wrap;html=1;fillColor=#FFCC99;strokeColor=#b85450;container=0;rotation=-90;movable=1;resizable=1;rotatable=1;deletable=1;editable=1;locked=0;connectable=1;" vertex="1" parent="I3P2b_C83MJ3J00Gu9B8-34">
          <mxGeometry x="26.85" y="94.93" width="85" height="20" as="geometry" />
        </mxCell>
        <mxCell id="I3P2b_C83MJ3J00Gu9B8-40" value="" style="rounded=0;whiteSpace=wrap;html=1;fillColor=#E6FFCC;strokeColor=#eb1e1e;strokeWidth=0.5;container=0;rotation=-90;movable=1;resizable=1;rotatable=1;deletable=1;editable=1;locked=0;connectable=1;" vertex="1" parent="I3P2b_C83MJ3J00Gu9B8-34">
          <mxGeometry x="27.85" y="10.749999999999993" width="25" height="78" as="geometry" />
        </mxCell>
        <mxCell id="I3P2b_C83MJ3J00Gu9B8-41" value="&lt;span style=&quot;background-color: rgb(213, 232, 212);&quot;&gt;&lt;font style=&quot;font-size: 14px;&quot;&gt;ConvBlock1&lt;/font&gt;&lt;/span&gt;" style="text;html=1;align=center;verticalAlign=middle;whiteSpace=wrap;rounded=0;fontColor=#CC6600;horizontal=0;rotation=90;container=0;movable=1;resizable=1;rotatable=1;deletable=1;editable=1;locked=0;connectable=1;" vertex="1" parent="I3P2b_C83MJ3J00Gu9B8-34">
          <mxGeometry x="29.6" y="-7.105427357601002e-15" width="21.5" height="99.5" as="geometry" />
        </mxCell>
        <mxCell id="I3P2b_C83MJ3J00Gu9B8-42" value="Basci_block" style="text;html=1;align=center;verticalAlign=middle;whiteSpace=wrap;rounded=0;fontColor=#333333;horizontal=0;rotation=0;container=0;movable=1;resizable=1;rotatable=1;deletable=1;editable=1;locked=0;connectable=1;fillColor=#f5f5f5;strokeColor=#666666;" vertex="1" parent="I3P2b_C83MJ3J00Gu9B8-34">
          <mxGeometry x="110.60000000000002" y="43.68000000000001" width="21.5" height="99.5" as="geometry" />
        </mxCell>
        <mxCell id="I3P2b_C83MJ3J00Gu9B8-44" style="edgeStyle=orthogonalEdgeStyle;rounded=0;orthogonalLoop=1;jettySize=auto;html=1;entryX=0;entryY=0.5;entryDx=0;entryDy=0;" edge="1" parent="I3P2b_C83MJ3J00Gu9B8-34" source="I3P2b_C83MJ3J00Gu9B8-32" target="I3P2b_C83MJ3J00Gu9B8-35">
          <mxGeometry relative="1" as="geometry">
            <mxPoint x="-9.40300000000002" y="92.51000000000002" as="targetPoint" />
          </mxGeometry>
        </mxCell>
        <mxCell id="I3P2b_C83MJ3J00Gu9B8-45" style="edgeStyle=orthogonalEdgeStyle;rounded=0;orthogonalLoop=1;jettySize=auto;html=1;entryX=0;entryY=0.5;entryDx=0;entryDy=0;" edge="1" parent="I3P2b_C83MJ3J00Gu9B8-34">
          <mxGeometry relative="1" as="geometry">
            <mxPoint x="87.60000000000002" y="91.43000000000004" as="sourcePoint" />
            <mxPoint x="110.60000000000002" y="91.43000000000004" as="targetPoint" />
          </mxGeometry>
        </mxCell>
        <mxCell id="I3P2b_C83MJ3J00Gu9B8-47" value="" style="rounded=1;whiteSpace=wrap;html=1;fillColor=none;strokeWidth=0.5;strokeColor=#ec1818;container=0;movable=1;resizable=1;rotatable=1;deletable=1;editable=1;locked=0;connectable=1;" vertex="1" parent="1">
          <mxGeometry x="172.98" y="363.42999999999995" width="94.75" height="120" as="geometry" />
        </mxCell>
        <mxCell id="I3P2b_C83MJ3J00Gu9B8-48" value="Conv2d" style="rounded=0;whiteSpace=wrap;html=1;fillColor=default;strokeColor=#d79b00;gradientColor=#00FF80;container=0;rotation=-90;movable=1;resizable=1;rotatable=1;deletable=1;editable=1;locked=0;connectable=1;" vertex="1" parent="1">
          <mxGeometry x="148.85" y="424.92999999999995" width="85" height="20" as="geometry" />
        </mxCell>
        <mxCell id="I3P2b_C83MJ3J00Gu9B8-49" value="BatchNorm2d" style="rounded=0;whiteSpace=wrap;html=1;fillColor=#dae8fc;strokeColor=#6c8ebf;gradientColor=#66B2FF;container=0;rotation=-90;movable=1;resizable=1;rotatable=1;deletable=1;editable=1;locked=0;connectable=1;" vertex="1" parent="1">
          <mxGeometry x="166.85" y="424.92999999999995" width="85" height="20" as="geometry" />
        </mxCell>
        <mxCell id="I3P2b_C83MJ3J00Gu9B8-50" value="Relu" style="rounded=0;whiteSpace=wrap;html=1;gradientColor=#CCCCCC;container=0;rotation=-90;movable=1;resizable=1;rotatable=1;deletable=1;editable=1;locked=0;connectable=1;" vertex="1" parent="1">
          <mxGeometry x="187.33999999999997" y="424.92999999999995" width="85" height="20" as="geometry" />
        </mxCell>
        <mxCell id="I3P2b_C83MJ3J00Gu9B8-51" value="MaxPool2d" style="rounded=0;whiteSpace=wrap;html=1;fillColor=#FFCC99;strokeColor=#b85450;container=0;rotation=-90;movable=1;resizable=1;rotatable=1;deletable=1;editable=1;locked=0;connectable=1;" vertex="1" parent="1">
          <mxGeometry x="206.85" y="424.92999999999995" width="85" height="20" as="geometry" />
        </mxCell>
        <mxCell id="I3P2b_C83MJ3J00Gu9B8-52" value="" style="rounded=0;whiteSpace=wrap;html=1;fillColor=#E6FFCC;strokeColor=#eb1e1e;strokeWidth=0.5;container=0;rotation=-90;movable=1;resizable=1;rotatable=1;deletable=1;editable=1;locked=0;connectable=1;" vertex="1" parent="1">
          <mxGeometry x="207.85" y="340.75" width="25" height="78" as="geometry" />
        </mxCell>
        <mxCell id="I3P2b_C83MJ3J00Gu9B8-53" value="&lt;span style=&quot;background-color: rgb(213, 232, 212);&quot;&gt;&lt;font style=&quot;font-size: 14px;&quot;&gt;ConvBlock1&lt;/font&gt;&lt;/span&gt;" style="text;html=1;align=center;verticalAlign=middle;whiteSpace=wrap;rounded=0;fontColor=#CC6600;horizontal=0;rotation=90;container=0;movable=1;resizable=1;rotatable=1;deletable=1;editable=1;locked=0;connectable=1;" vertex="1" parent="1">
          <mxGeometry x="209.6" y="330" width="21.5" height="99.5" as="geometry" />
        </mxCell>
        <mxCell id="I3P2b_C83MJ3J00Gu9B8-54" value="Basci_block" style="text;html=1;align=center;verticalAlign=middle;whiteSpace=wrap;rounded=0;fontColor=#333333;horizontal=0;rotation=0;container=0;movable=1;resizable=1;rotatable=1;deletable=1;editable=1;locked=0;connectable=1;fillColor=#f5f5f5;strokeColor=#666666;" vertex="1" parent="1">
          <mxGeometry x="290.6" y="373.67999999999995" width="21.5" height="99.5" as="geometry" />
        </mxCell>
        <mxCell id="I3P2b_C83MJ3J00Gu9B8-55" style="edgeStyle=orthogonalEdgeStyle;rounded=0;orthogonalLoop=1;jettySize=auto;html=1;entryX=0;entryY=0.5;entryDx=0;entryDy=0;" edge="1" parent="1" target="I3P2b_C83MJ3J00Gu9B8-47">
          <mxGeometry relative="1" as="geometry">
            <mxPoint x="110" y="423" as="sourcePoint" />
            <mxPoint x="170.59699999999998" y="422.51" as="targetPoint" />
          </mxGeometry>
        </mxCell>
        <mxCell id="I3P2b_C83MJ3J00Gu9B8-56" style="edgeStyle=orthogonalEdgeStyle;rounded=0;orthogonalLoop=1;jettySize=auto;html=1;entryX=0;entryY=0.5;entryDx=0;entryDy=0;" edge="1" parent="1">
          <mxGeometry relative="1" as="geometry">
            <mxPoint x="267.6" y="424.43" as="sourcePoint" />
            <mxPoint x="290.6" y="424.43" as="targetPoint" />
          </mxGeometry>
        </mxCell>
        <mxCell id="I3P2b_C83MJ3J00Gu9B8-58" value="AveragePool2d" style="text;html=1;align=center;verticalAlign=middle;whiteSpace=wrap;rounded=0;horizontal=0;rotation=0;container=0;movable=1;resizable=1;rotatable=1;deletable=1;editable=1;locked=0;connectable=1;fillColor=#d5e8d4;strokeColor=#82b366;" vertex="1" parent="1">
          <mxGeometry x="340" y="278.93" width="21.5" height="159.5" as="geometry" />
        </mxCell>
        <mxCell id="I3P2b_C83MJ3J00Gu9B8-59" style="edgeStyle=orthogonalEdgeStyle;rounded=0;orthogonalLoop=1;jettySize=auto;html=1;entryX=0;entryY=0.5;entryDx=0;entryDy=0;" edge="1" parent="1">
          <mxGeometry relative="1" as="geometry">
            <mxPoint x="314.5" y="291.75" as="sourcePoint" />
            <mxPoint x="337.5" y="291.75" as="targetPoint" />
          </mxGeometry>
        </mxCell>
        <mxCell id="I3P2b_C83MJ3J00Gu9B8-60" style="edgeStyle=orthogonalEdgeStyle;rounded=0;orthogonalLoop=1;jettySize=auto;html=1;entryX=0;entryY=0.5;entryDx=0;entryDy=0;" edge="1" parent="1">
          <mxGeometry relative="1" as="geometry">
            <mxPoint x="313.5" y="424.75" as="sourcePoint" />
            <mxPoint x="336.5" y="424.75" as="targetPoint" />
          </mxGeometry>
        </mxCell>
        <mxCell id="I3P2b_C83MJ3J00Gu9B8-61" value="Classifier" style="text;html=1;align=center;verticalAlign=middle;whiteSpace=wrap;rounded=0;horizontal=0;rotation=0;container=0;movable=1;resizable=1;rotatable=1;deletable=1;editable=1;locked=0;connectable=1;fillColor=#d5e8d4;strokeColor=#82b366;" vertex="1" parent="1">
          <mxGeometry x="391" y="241.24999999999997" width="21.5" height="99.5" as="geometry" />
        </mxCell>
        <mxCell id="I3P2b_C83MJ3J00Gu9B8-62" style="edgeStyle=orthogonalEdgeStyle;rounded=0;orthogonalLoop=1;jettySize=auto;html=1;entryX=0;entryY=0.5;entryDx=0;entryDy=0;" edge="1" parent="1">
          <mxGeometry relative="1" as="geometry">
            <mxPoint x="367" y="292" as="sourcePoint" />
            <mxPoint x="390" y="292" as="targetPoint" />
          </mxGeometry>
        </mxCell>
        <mxCell id="I3P2b_C83MJ3J00Gu9B8-63" value="Classifier" style="text;html=1;align=center;verticalAlign=middle;whiteSpace=wrap;rounded=0;horizontal=0;rotation=0;container=0;movable=1;resizable=1;rotatable=1;deletable=1;editable=1;locked=0;connectable=1;fillColor=#d5e8d4;strokeColor=#82b366;" vertex="1" parent="1">
          <mxGeometry x="385.5" y="373.67999999999995" width="21.5" height="99.5" as="geometry" />
        </mxCell>
        <mxCell id="I3P2b_C83MJ3J00Gu9B8-64" style="edgeStyle=orthogonalEdgeStyle;rounded=0;orthogonalLoop=1;jettySize=auto;html=1;entryX=0;entryY=0.5;entryDx=0;entryDy=0;" edge="1" parent="1">
          <mxGeometry relative="1" as="geometry">
            <mxPoint x="361.5" y="424.43" as="sourcePoint" />
            <mxPoint x="384.5" y="424.43" as="targetPoint" />
          </mxGeometry>
        </mxCell>
        <mxCell id="I3P2b_C83MJ3J00Gu9B8-65" value="Output_左" style="text;html=1;align=center;verticalAlign=middle;whiteSpace=wrap;rounded=0;" vertex="1" parent="1">
          <mxGeometry x="440" y="276" width="60" height="30" as="geometry" />
        </mxCell>
        <mxCell id="I3P2b_C83MJ3J00Gu9B8-67" style="edgeStyle=orthogonalEdgeStyle;rounded=0;orthogonalLoop=1;jettySize=auto;html=1;entryX=0;entryY=0.5;entryDx=0;entryDy=0;" edge="1" parent="1">
          <mxGeometry relative="1" as="geometry">
            <mxPoint x="415" y="291" as="sourcePoint" />
            <mxPoint x="438" y="291" as="targetPoint" />
          </mxGeometry>
        </mxCell>
        <mxCell id="I3P2b_C83MJ3J00Gu9B8-68" value="Output_右" style="text;html=1;align=center;verticalAlign=middle;whiteSpace=wrap;rounded=0;" vertex="1" parent="1">
          <mxGeometry x="434" y="410" width="60" height="30" as="geometry" />
        </mxCell>
        <mxCell id="I3P2b_C83MJ3J00Gu9B8-69" style="edgeStyle=orthogonalEdgeStyle;rounded=0;orthogonalLoop=1;jettySize=auto;html=1;entryX=0;entryY=0.5;entryDx=0;entryDy=0;" edge="1" parent="1">
          <mxGeometry relative="1" as="geometry">
            <mxPoint x="409" y="425" as="sourcePoint" />
            <mxPoint x="432" y="425" as="targetPoint" />
          </mxGeometry>
        </mxCell>
      </root>
    </mxGraphModel>
  </diagram>
</mxfile>
